<?xml version="1.0" encoding="utf-8"?>
<!-- Generator: Adobe Illustrator 24.1.0, SVG Export Plug-In . SVG Version: 6.00 Build 0)  -->
<svg version="1.1" id="Calque_1" xmlns="http://www.w3.org/2000/svg" xmlns:xlink="http://www.w3.org/1999/xlink" x="0px" y="0px"
	 viewBox="0 0 55 55" style="enable-background:new 0 0 55 55;" xml:space="preserve">
<style type="text/css">
	.st0{fill:#FFFFFF;}
	.st1{fill:#C1272D;}
	.st2{fill:#603813;}
	.st3{fill:#009245;}
	.st4{fill:#39B54A;}
	.st5{fill:#AD1F2A;}
</style>
<g id="Groupe_122" transform="translate(-60 -153)">
	<circle id="Ellipse_49" class="st0" cx="87.5" cy="180.5" r="27.5"/>
	<g id="Groupe_62" transform="translate(78.613 164.638)">
		<path id="Tracé_15" class="st1" d="M0,23.3c0,4.6,3.7,8.4,8.4,8.4c4.6,0,8.4-3.7,8.4-8.4c0-4.6-3.7-8.4-8.4-8.4S0,18.7,0,23.3
			C0,23.3,0,23.3,0,23.3z"/>
		<path id="Tracé_16" class="st2" d="M17.9,0h-1.2v1.1c0,5.8-1.9,11.4-5.3,16l-1.7,2.3l1,0.7l1.7-2.3c2.5-3.4,4.3-7.4,5.1-11.5"/>
		<path id="Tracé_17" class="st3" d="M5.4,7.2h5.4c3.6,0,6.6-2.9,6.6-6.6c0,0,0,0,0,0H12C8.3,0.6,5.4,3.5,5.4,7.2z"/>
		<path id="Tracé_18" class="st3" d="M17,1.1l0.4-0.5c0,0.3,0,0.5,0.1,0.8L17,1.1z"/>
		<path id="Tracé_19" class="st4" d="M13.1,3.6V2.4c0.6,0,1.3-0.2,1.8-0.6l1.5-1.2h1c0,0.3,0,0.5-0.1,0.8l-1.6,1.3
			C14.9,3.3,14.1,3.6,13.1,3.6z"/>
		<g id="Groupe_29" transform="translate(8.965 17.331)">
			<path id="Tracé_20" class="st5" d="M3.6,3.6V2.4C2.3,2.4,1.2,1.3,1.2,0H0C0,2,1.6,3.6,3.6,3.6z"/>
		</g>
	</g>
</g>
</svg>
