<?xml version="1.0" encoding="utf-8"?>
<!-- Generator: Adobe Illustrator 24.1.0, SVG Export Plug-In . SVG Version: 6.00 Build 0)  -->
<svg version="1.1" id="Calque_1" xmlns="http://www.w3.org/2000/svg" xmlns:xlink="http://www.w3.org/1999/xlink" x="0px" y="0px"
	 viewBox="0 0 12.4 19.4" style="enable-background:new 0 0 12.4 19.4;" xml:space="preserve">
<style type="text/css">
	.st0{opacity:0.6;}
	.st1{fill:#8390A2;}
</style>
<g id="Groupe_68" transform="translate(1.663 -0.508) rotate(4.992)" class="st0">
	<path id="Tracé_15" class="st1" d="M0,14.1c0,2.8,2.3,5.1,5.1,5.1c2.8,0,5-2.3,5-5.1c0-2.8-2.3-5.1-5.1-5.1S0,11.3,0,14.1
		C0,14.1,0,14.1,0,14.1z"/>
	<path id="Tracé_16" class="st1" d="M10.8,0l-0.7,0l0,0.7c0,3.5-1.1,6.9-3.2,9.6l-1,1.4l0.6,0.4l1-1.4c1.5-2.1,2.6-4.4,3.1-7"/>
	<path id="Tracé_17" class="st1" d="M3.2,4.3l3.2,0c2.2,0,4-1.8,4-4l-3.2,0C5,0.4,3.2,2.1,3.2,4.3C3.2,4.3,3.2,4.3,3.2,4.3z"/>
	<path id="Tracé_18" class="st1" d="M10.2,0.6l0.2-0.3c0,0.2,0,0.3,0,0.5L10.2,0.6z"/>
	<path id="Tracé_19" class="st1" d="M7.9,2.2l0-0.7c0.4,0,0.8-0.1,1.1-0.4l0.9-0.7l0.6,0c0,0.2,0,0.3,0,0.5l-1,0.8
		C9,2,8.5,2.2,7.9,2.2z"/>
	<g id="Groupe_29" transform="translate(5.411 10.461)">
		<path id="Tracé_20" class="st1" d="M2.2,2.2l0-0.7C1.4,1.4,0.7,0.8,0.7,0L0,0C0,1.2,1,2.2,2.2,2.2L2.2,2.2z"/>
	</g>
</g>
</svg>
