<?xml version="1.0" encoding="utf-8"?>
<!-- Generator: Adobe Illustrator 24.1.0, SVG Export Plug-In . SVG Version: 6.00 Build 0)  -->
<svg version="1.1" id="_360-degrees" xmlns="http://www.w3.org/2000/svg" xmlns:xlink="http://www.w3.org/1999/xlink" x="0px"
	 y="0px" viewBox="0 0 69.1 51.3" style="enable-background:new 0 0 69.1 51.3;" xml:space="preserve">
<style type="text/css">
	.st0{fill:#AF4B4F;}
</style>
<path id="Tracé_74" class="st0" d="M43.5,45.3c-1.1,0-2-0.9-2-2c0-1,0.8-1.9,1.8-2c6.4-0.8,12.1-2.6,16.1-4.9
	c3.7-2.1,5.7-4.6,5.7-7.1c0-2.7-2.4-4.9-4.3-6.2c-0.9-0.6-1.2-1.9-0.5-2.8c0.6-0.9,1.9-1.2,2.8-0.5c4,2.7,6.1,6,6.1,9.6
	c0,4-2.7,7.6-7.7,10.6c-4.5,2.6-10.6,4.5-17.7,5.4C43.7,45.3,43.6,45.3,43.5,45.3z"/>
<path id="Tracé_75" class="st0" d="M34.1,42.4L28.7,37c-0.8-0.8-2.1-0.8-2.9-0.1S25,39,25.7,39.8c0,0,0,0,0.1,0.1l1.6,1.6
	c-5.5-0.5-10.8-1.8-15.8-4.1c-4.8-2.3-7.5-5.2-7.5-8c0-2.4,2-4.9,5.5-7c1-0.6,1.3-1.8,0.8-2.8s-1.8-1.3-2.8-0.8c0,0,0,0-0.1,0
	C1.3,22.6,0,26.6,0,29.3C0,33.8,3.5,38,9.8,41c5.8,2.6,11.9,4.1,18.2,4.6l-2.2,2.2c-0.8,0.8-0.8,2.1,0,2.9c0.8,0.8,2,0.8,2.8,0
	l5.4-5.4C34.9,44.5,34.9,43.2,34.1,42.4C34.1,42.4,34.1,42.4,34.1,42.4z"/>
<path id="Tracé_76" class="st0" d="M21.2,25.3v-0.5c0-1.7-1.1-2.1-2.5-2.1c-0.9,0-1.2-0.8-1.2-1.5s0.3-1.5,1.2-1.5c1,0,2-0.1,2-2.2
	c0-1.5-0.8-1.8-1.9-1.8c-1.3,0-1.9,0.3-1.9,1.3c0,0.9-0.4,1.5-1.9,1.5c-1.8,0-2.1-0.4-2.1-1.6c0-2,1.4-4.6,5.8-4.6
	c3.3,0,5.7,1.2,5.7,4.6c0,1.9-0.7,3.6-2,4.2c1.6,0.5,2.7,2.1,2.6,3.8v0.5c0,4.2-2.9,5.8-6.5,5.8c-4.4,0-6.1-2.7-6.1-4.8
	c0-1.2,0.5-1.5,1.9-1.5c1.6,0,2.1,0.4,2.1,1.3c0,1.2,1.1,1.5,2.3,1.5C20.6,27.6,21.2,27,21.2,25.3z"/>
<path id="Tracé_77" class="st0" d="M40.8,24.8V25c0,4.4-2.7,6.1-6.3,6.1s-6.3-1.6-6.3-6.1v-6.8c0-4.4,2.8-6.1,6.5-6.1
	c4.3,0,6.1,2.7,6.1,4.8c0,1.2-0.6,1.6-1.9,1.6c-1.1,0-2.1-0.3-2.1-1.5c0-1-1-1.5-2.2-1.5c-1.5,0-2.4,0.8-2.4,2.6v2.3
	c0.9-0.8,2-1.2,3.2-1.1C38.3,19.4,40.8,20.7,40.8,24.8z M32.2,25.3c0,1.8,0.9,2.5,2.3,2.5s2.3-0.8,2.3-2.5v-0.2
	c0-1.9-0.8-2.6-2.3-2.6c-1.1-0.1-2.2,0.7-2.3,1.8c0,0.2,0,0.4,0,0.6V25.3z"/>
<path id="Tracé_78" class="st0" d="M43.9,25v-6.8c0-4.4,2.7-6.1,6.3-6.1s6.3,1.6,6.3,6.1V25c0,4.4-2.8,6.1-6.3,6.1
	S43.9,29.4,43.9,25z M52.5,18.2c0-1.8-0.9-2.6-2.3-2.6s-2.3,0.8-2.3,2.6V25c0,1.8,0.8,2.6,2.3,2.6s2.3-0.8,2.3-2.6V18.2z"/>
<path id="Tracé_79" class="st0" d="M61.4,12.2c-3.4,0-6.1-2.7-6.1-6.1S58,0,61.4,0s6.1,2.7,6.1,6.1c0,0,0,0,0,0
	C67.4,9.4,64.7,12.2,61.4,12.2z M61.4,4.1c-1.1,0-2,0.9-2,2s0.9,2,2,2c1.1,0,2-0.9,2-2C63.4,5,62.5,4.1,61.4,4.1L61.4,4.1z"/>
</svg>
