<?xml version="1.0" encoding="utf-8"?>
<!-- Generator: Adobe Illustrator 24.1.0, SVG Export Plug-In . SVG Version: 6.00 Build 0)  -->
<svg version="1.1" id="Calque_1" xmlns="http://www.w3.org/2000/svg" xmlns:xlink="http://www.w3.org/1999/xlink" x="0px" y="0px"
	 viewBox="0 0 147 147" style="enable-background:new 0 0 147 147;" xml:space="preserve">
<style type="text/css">
	.st0{fill:#AF4B4F;}
	.st1{fill:#FFFFFF;}
</style>
<g id="Groupe_81" transform="translate(0.179)">
	<circle id="Ellipse_46" class="st0" cx="73.3" cy="73.5" r="73.5"/>
	<path id="snow" class="st1" d="M107.3,81.6c-0.4-0.2-0.9-0.3-1.3-0.1L96,84.8l-6-3.5l6.9-2.4c0.4-0.1,0.7-0.4,0.9-0.7l0.1-0.1
		c0.5-0.8,0.2-1.8-0.6-2.3c-0.4-0.2-0.9-0.3-1.3-0.1l-9.9,3.3l-5.4-3.1v-2.8l5.4-3.1l9.9,3.3c0.9,0.3,1.8-0.2,2.1-1
		c0.1-0.4,0.1-0.9-0.1-1.3l-0.1-0.1c-0.2-0.3-0.5-0.6-0.9-0.7L90,67.6l6-3.5l9.9,3.3c0.9,0.3,1.8-0.2,2.1-1c0.1-0.4,0.1-0.9-0.1-1.3
		l-0.1-0.1c-0.2-0.3-0.5-0.6-0.9-0.7l-6.8-2.4l3.4-2c1.1-0.7,1.5-2.1,0.9-3.3s-2.1-1.5-3.3-0.9l-3.4,2l1.3-7.1
		c0.1-0.4,0-0.8-0.2-1.1l-0.1-0.1c-0.5-0.8-1.5-1.1-2.3-0.6c-0.4,0.2-0.7,0.6-0.8,1.1l-2.1,10.2l-6,3.5l1.3-7.1
		c0.1-0.4,0-0.8-0.2-1.1l-0.1-0.1c-0.5-0.8-1.5-1.1-2.3-0.6c-0.4,0.2-0.7,0.6-0.8,1.1l-2.1,10.2L79.6,68l-3.9-2v-4.8l7.8-6.9
		c0.7-0.6,0.7-1.6,0.1-2.3c-0.3-0.4-0.8-0.6-1.2-0.6h-0.1c-0.4,0-0.8,0.1-1.1,0.4l-5.5,4.7v-7l7.8-6.9c0.7-0.6,0.7-1.6,0.1-2.3
		c-0.3-0.4-0.8-0.6-1.2-0.6h-0.1c-0.4,0-0.8,0.1-1.1,0.4l-5.5,4.7V41c0-1.3-1.1-2.4-2.4-2.4s-2.4,1.1-2.4,2.4v3.9l-5.5-4.7
		c-0.3-0.3-0.7-0.4-1.1-0.4h-0.1c-0.9,0-1.7,0.7-1.7,1.6c0,0.5,0.2,0.9,0.6,1.2l7.8,6.9v7l-5.5-4.7c-0.3-0.3-0.7-0.4-1.1-0.4h-0.1
		c-0.9,0-1.7,0.7-1.7,1.6c0,0.5,0.2,0.9,0.6,1.2l7.8,6.9v4.8L67,68l-3.9-2.2L61,55.5c-0.2-0.9-1.1-1.5-2-1.3
		c-0.5,0.1-0.9,0.4-1.1,0.8l-0.1,0.1c-0.2,0.3-0.3,0.7-0.2,1.1l1.3,7.1l-6-3.5l-2.1-10.2c-0.2-0.9-1.1-1.5-1.9-1.3
		c-0.5,0.1-0.9,0.4-1.1,0.8l-0.1,0.1c-0.2,0.3-0.3,0.7-0.2,1.1l1.3,7.1l-3.4-2c-1.1-0.7-2.6-0.3-3.3,0.9c-0.7,1.1-0.3,2.6,0.9,3.3
		l0,0l3.4,2l-6.8,2.4c-0.4,0.1-0.7,0.4-0.9,0.7L38.7,65c-0.5,0.8-0.2,1.8,0.6,2.3c0.4,0.2,0.9,0.3,1.3,0.1l9.9-3.3l6,3.5L49.8,70
		c-0.4,0.1-0.7,0.4-0.9,0.7l-0.1,0.1c-0.5,0.8-0.2,1.8,0.6,2.3c0.4,0.2,0.9,0.3,1.3,0.1l9.9-3.3l5.4,3.1v2.8l-5.4,3.1l-9.9-3.3
		c-0.9-0.3-1.8,0.2-2.1,1c-0.1,0.4-0.1,0.9,0.1,1.3l0.1,0.1c0.2,0.3,0.5,0.6,0.9,0.7l6.9,2.4l-6,3.5l-9.9-3.3
		c-0.9-0.3-1.8,0.2-2.1,1c-0.2,0.5-0.1,0.9,0.1,1.4l0.1,0.1c0.2,0.3,0.5,0.6,0.9,0.7l6.9,2.4l-3.4,2c-1.1,0.7-1.5,2.1-0.9,3.3
		s2.1,1.5,3.3,0.9l3.4-2l-1.3,7.1c-0.1,0.4,0,0.8,0.2,1.1l0.1,0.1c0.5,0.8,1.5,1.1,2.3,0.6c0.4-0.2,0.7-0.6,0.8-1.1L53,88.9l6-3.5
		l-1.3,7.1c-0.1,0.4,0,0.8,0.2,1.1l0.1,0.1c0.5,0.8,1.5,1.1,2.3,0.6c0.4-0.2,0.7-0.6,0.8-1.1l2.1-10.2l3.9-2.2l3.9,2v4.8l-7.8,6.9
		c-0.7,0.6-0.7,1.6-0.1,2.3c0.3,0.4,0.8,0.6,1.2,0.6h0.1c0.4,0,0.8-0.1,1.1-0.4l5.5-4.7v7l-7.8,7c-0.7,0.6-0.7,1.6-0.1,2.3
		c0.3,0.4,0.8,0.6,1.2,0.6h0.1c0.4,0,0.8-0.1,1.1-0.4l5.5-4.7v3.9c0,1.3,1.1,2.4,2.4,2.4s2.4-1.1,2.4-2.4l0,0V104l5.5,4.7
		c0.3,0.3,0.7,0.4,1.1,0.4h0.1c0.9,0,1.7-0.7,1.7-1.6c0-0.5-0.2-0.9-0.6-1.2l-7.8-6.9v-7l5.5,4.7c0.3,0.3,0.7,0.4,1.1,0.4h0.1
		c0.9,0,1.7-0.7,1.7-1.6c0-0.5-0.2-0.9-0.6-1.2l-7.8-7v-4.8l3.9-2l3.9,2.2l2.1,10.2c0.2,0.9,1.1,1.5,2,1.3c0.5-0.1,0.9-0.4,1.1-0.8
		l0.1-0.1c0.2-0.3,0.3-0.7,0.2-1.1l-1.3-7.1l6,3.5l2.1,10.2c0.2,0.9,1.1,1.5,1.9,1.3c0.5-0.1,0.9-0.4,1.1-0.8l0.1-0.1
		c0.2-0.3,0.3-0.7,0.2-1.1l-1.3-7.1l3.4,2c1.1,0.7,2.6,0.3,3.3-0.8c0.7-1.1,0.3-2.6-0.8-3.3c0,0-0.1,0-0.1,0l-3.4-2l6.9-2.4
		c0.4-0.1,0.7-0.4,0.9-0.7l0.1-0.1C108.3,83.1,108.1,82.1,107.3,81.6C107.3,81.6,107.3,81.6,107.3,81.6z M75.7,76.8L73.3,78
		l-2.4-1.2V72l2.4-1.2l2.4,1.2V76.8z"/>
</g>
</svg>
