<?xml version="1.0" encoding="utf-8"?>
<!-- Generator: Adobe Illustrator 24.1.0, SVG Export Plug-In . SVG Version: 6.00 Build 0)  -->
<svg version="1.1" id="Calque_1" xmlns="http://www.w3.org/2000/svg" xmlns:xlink="http://www.w3.org/1999/xlink" x="0px" y="0px"
	 viewBox="0 0 147 147" style="enable-background:new 0 0 147 147;" xml:space="preserve">
<style type="text/css">
	.st0{fill:#AF4B4F;}
	.st1{fill:#FFFFFF;}
</style>
<g id="Groupe_80" transform="translate(-0.296)">
	<circle id="Ellipse_47" class="st0" cx="73.8" cy="73.5" r="73.5"/>
	<g id="fire" transform="translate(45.818 36.425)">
		<g id="Groupe_36">
			<path id="Tracé_26" class="st1" d="M56.5,44.3C55.7,33,50.4,25.9,45.8,19.7c-4.3-5.8-8-10.8-8-18.1c0-0.6-0.3-1.1-0.9-1.4
				c-0.5-0.3-1.2-0.2-1.6,0.1c-7.2,5.3-12.4,12.8-14.8,21.4c-1.2,5.2-1.7,10.6-1.6,16c-6.4-1.4-7.9-11-7.9-11.1
				c-0.1-0.9-0.9-1.5-1.8-1.3c-0.2,0-0.3,0.1-0.5,0.1C8.4,25.5,0.5,29.5,0,45.6c0,0.5,0,1.1,0,1.6c0,15.6,12.7,28.3,28.3,28.3
				c0,0,0,0,0.1,0h0C44,75.5,56.7,62.9,56.7,47.2C56.7,46.5,56.5,44.3,56.5,44.3z M28.3,72.4c-5.2,0-9.4-4.5-9.4-10.1
				c0-0.2,0-0.4,0-0.6c0-1.7,0.3-3.4,1-5c0.9,2,2.5,3.8,5.2,3.8c0.9,0,1.6-0.7,1.6-1.6c0,0,0,0,0,0c-0.1-2.4,0.1-4.8,0.6-7.2
				c0.6-2.2,1.7-4.3,3.2-6c0.7,2.2,1.8,4.2,3.2,6c1.8,2.6,3.7,5.3,4,9.8c0,0.3,0,0.5,0,0.8C37.8,67.9,33.6,72.4,28.3,72.4z"/>
		</g>
	</g>
</g>
</svg>
