<?xml version="1.0" encoding="utf-8"?>
<!-- Generator: Adobe Illustrator 24.1.0, SVG Export Plug-In . SVG Version: 6.00 Build 0)  -->
<svg version="1.1" id="Calque_1" xmlns="http://www.w3.org/2000/svg" xmlns:xlink="http://www.w3.org/1999/xlink" x="0px" y="0px"
	 viewBox="0 0 146 147" style="enable-background:new 0 0 146 147;" xml:space="preserve">
<style type="text/css">
	.st0{fill:#AF4B4F;}
	.st1{fill:#FFFFFF;}
</style>
<g id="Groupe_123" transform="translate(-290 -1315)">
	<g id="Groupe_121" transform="translate(289.964 1315)">
		<ellipse id="Ellipse_45" class="st0" cx="73" cy="73.5" rx="73" ry="73.5"/>
	</g>
	<g id="graph" transform="translate(321.771 1351.547)">
		<path id="Tracé_46" class="st1" d="M81,72.8V19.2H64.5v53.5h-4.1V30.2H43.9v42.6h-4.1V41.2H23.3v31.6h-4.1V53.5H2.7v19.2H1.4
			c-0.8,0-1.4,0.6-1.4,1.4s0.6,1.4,1.4,1.4H81c0.8,0,1.4-0.6,1.4-1.4S81.8,72.8,81,72.8z M5.5,72.8V56.3h11v16.5H5.5z M26.1,72.8
			V43.9h11v28.8H26.1z M46.7,72.8V33h11v39.8H46.7z M67.3,72.8V22h11v50.8H67.3z"/>
		<path id="Tracé_47" class="st1" d="M11,34.8c0.2,0,0.5-0.1,0.7-0.2L61.5,5.8l-3.1,6.9c-0.3,0.7,0,1.5,0.7,1.8c0,0,0,0,0,0
			c0.2,0.1,0.4,0.1,0.6,0.1c0.5,0,1-0.3,1.3-0.8l4.9-10.8c0,0,0-0.1,0-0.1c0-0.1,0-0.1,0.1-0.2c0,0,0-0.1,0-0.1c0,0,0,0,0,0
			c0-0.1,0-0.1,0-0.2c0-0.1,0-0.1,0-0.2c0-0.1,0-0.1,0-0.2c0,0,0-0.1-0.1-0.1c0,0,0-0.1,0-0.1s-0.1-0.1-0.1-0.1c0,0-0.1-0.1-0.1-0.1
			c0,0-0.1-0.1-0.1-0.1c-0.1-0.1-0.1-0.1-0.2-0.1c0,0-0.1-0.1-0.1-0.1c0,0,0,0,0,0c0,0-0.1,0-0.1,0c-0.1,0-0.2,0-0.2-0.1
			c0,0-0.1,0-0.1,0L52.9,0c-0.8-0.1-1.4,0.5-1.5,1.2c-0.1,0.8,0.5,1.4,1.2,1.5l0,0l7.5,0.7L10.3,32.2c-0.7,0.4-0.9,1.2-0.5,1.9
			C10.1,34.5,10.5,34.8,11,34.8z"/>
	</g>
	<rect id="Rectangle_967" x="327" y="1407" class="st1" width="12" height="18"/>
	<rect id="Rectangle_968" x="347" y="1395" class="st1" width="12" height="30"/>
	<rect id="Rectangle_969" x="368" y="1384" class="st1" width="12" height="41"/>
	<rect id="Rectangle_970" x="388" y="1373" class="st1" width="13" height="52"/>
</g>
</svg>
