<?xml version="1.0" encoding="utf-8"?>
<!-- Generator: Adobe Illustrator 24.1.0, SVG Export Plug-In . SVG Version: 6.00 Build 0)  -->
<svg version="1.1" id="Groupe_78" xmlns="http://www.w3.org/2000/svg" xmlns:xlink="http://www.w3.org/1999/xlink" x="0px" y="0px"
	 viewBox="0 0 146 147" style="enable-background:new 0 0 146 147;" xml:space="preserve">
<style type="text/css">
	.st0{fill:#AF4B4F;}
	.st1{fill:#FFFFFF;}
</style>
<ellipse id="Ellipse_43" class="st0" cx="73" cy="73.5" rx="73" ry="73.5"/>
<g id="dessert_1_" transform="translate(35.053 52.403)">
	<g id="Groupe_47">
		<g id="Groupe_46">
			<path id="Tracé_31" class="st1" d="M76.1,21.6l-0.3-0.5l0,0C63.2,0.4,36.1-6.2,15.4,6.4C9.3,10,4.3,15.1,0.6,21.1l-0.3,0.5
				c-0.5,0.9-0.4,2,0.3,2.7l3,2.9c0.7,0.7,1.5,1.2,2.5,1.5l0.1,0c0.1,0,0.2,0.1,0.3,0.1l0.1,0c0.1,0,0.2,0,0.2,0.1l0.1,0
				c0.1,0,0.1,0,0.2,0l0.1,0c0.1,0,0.1,0,0.2,0l0.1,0c0.1,0,0.2,0,0.2,0l0.1,0c0.1,0,0.2,0,0.3,0c1.6,0,3.1-0.6,4.3-1.6
				c0.1-0.1,0.2-0.1,0.2-0.2c0.2-0.2,0.5-0.4,0.9-0.5h0c0.2,0,0.3-0.1,0.5-0.1c0,0,0,0,0.1,0c0,0,0.1,0,0.1,0c0,0,0,0,0.1,0
				c0,0,0.1,0,0.1,0l0.1,0c0,0,0.1,0,0.1,0s0.1,0,0.1,0l0,0c0,0,0.1,0,0.1,0.1c0.3,0.1,0.5,0.3,0.7,0.4c0.2,0.2,0.4,0.4,0.7,0.6
				l0.1,0.1c0.8,0.6,1.8,1,2.8,1.1l0.1,0c0.3,0,0.6,0.1,0.8,0.1c1.6,0,3.1-0.6,4.3-1.6c0.1-0.1,0.2-0.1,0.2-0.2
				c0.1-0.1,0.1-0.1,0.2-0.2c0,0,0.1-0.1,0.1-0.1c0.1-0.1,0.2-0.1,0.3-0.1c0.1,0,0.2-0.1,0.2-0.1l0,0c0.6-0.2,1.2,0,1.7,0.3
				c0.1,0.1,0.2,0.1,0.3,0.2c2.5,2.5,6.5,2.5,9.1,0c0.1-0.1,0.3-0.3,0.5-0.4l0,0c0.1-0.1,0.2-0.1,0.3-0.1h0c0.7-0.2,1.5,0,2,0.5
				c0.2,0.2,0.5,0.4,0.7,0.6l0.1,0c0.1,0,0.1,0.1,0.2,0.1c0.1,0.1,0.2,0.1,0.3,0.2l0,0c0,0,0.1,0.1,0.1,0.1s0.1,0,0.1,0.1
				s0.1,0,0.1,0.1c0.1,0,0.1,0.1,0.2,0.1s0.1,0,0.2,0.1s0.1,0,0.1,0.1s0.1,0,0.1,0.1s0.1,0,0.1,0.1s0.1,0,0.1,0c0.1,0,0.1,0,0.2,0.1
				l0.1,0c0.1,0,0.2,0,0.2,0.1l0.1,0c0.1,0,0.1,0,0.2,0l0.1,0c0.1,0,0.1,0,0.2,0s0.1,0,0.2,0l0.1,0c0,0,0.1,0,0.1,0s0.1,0,0.2,0H44
				c0.1,0,0.1,0,0.2,0l0,0c1.7,0,3.3-0.7,4.5-1.8c0.2-0.2,0.5-0.4,0.9-0.5h0c0.2,0,0.3-0.1,0.5-0.1c0,0,0,0,0.1,0c0,0,0.1,0,0.1,0
				c0,0,0,0,0.1,0c0,0,0.1,0,0.1,0l0.1,0c0,0,0.1,0,0.1,0s0.1,0,0.1,0l0,0c0,0,0.1,0,0.1,0.1c0.3,0.1,0.5,0.3,0.7,0.4
				c0.2,0.2,0.4,0.4,0.7,0.6l0.1,0.1c0.8,0.6,1.8,1,2.8,1.1l0.1,0c0.3,0,0.6,0.1,0.8,0.1c1.6,0,3.1-0.6,4.3-1.6
				c0.1-0.1,0.2-0.1,0.2-0.2c0.1-0.1,0.1-0.1,0.2-0.2c0,0,0.1-0.1,0.1-0.1c0.1-0.1,0.2-0.1,0.3-0.1c0.1,0,0.2-0.1,0.2-0.1l0,0
				c0.7-0.2,1.5,0,2,0.5c1.2,1.2,2.8,1.8,4.4,1.8h0.1c0.1,0,0.2,0,0.3,0l0.1,0c0.1,0,0.2,0,0.2,0l0.1,0c0.1,0,0.1,0,0.2,0l0.1,0
				c0.1,0,0.1,0,0.2,0l0.1,0c0.1,0,0.2,0,0.2-0.1l0.1,0c0.1,0,0.2,0,0.3-0.1l0.1,0c0.2-0.1,0.4-0.2,0.6-0.3l0,0
				c0.7-0.3,1.3-0.7,1.8-1.2l3-2.9C76.4,23.6,76.6,22.5,76.1,21.6z M33.9,9.6l-1.5,1.5c-0.9,0.9-2.3,0.9-3.1,0
				c-0.9-0.9-0.9-2.3,0-3.1l1.5-1.5c0.9-0.9,2.3-0.9,3.1,0C34.7,7.4,34.7,8.8,33.9,9.6z M40.4,9.5c0,1.2-1,2.2-2.2,2.2
				c-1.2,0-2.2-1-2.2-2.2V8.1c0-1.2,1-2.2,2.2-2.2s2.2,1,2.2,2.2l0,0V9.5z M47.1,11.1c-0.9,0.9-2.3,0.9-3.1,0c0,0,0,0,0,0l-1.5-1.5
				c-0.9-0.9-0.9-2.3,0-3.1c0.9-0.9,2.3-0.9,3.1,0L47.1,8C47.9,8.8,47.9,10.2,47.1,11.1C47.1,11.1,47.1,11.1,47.1,11.1L47.1,11.1z"
				/>
		</g>
	</g>
	<g id="Groupe_49" transform="translate(7.12 31.736)">
		<g id="Groupe_48">
			<path id="Tracé_32" class="st1" d="M61.1,1.8c-2.1,0-4.2-0.6-6-1.8c-3.6,2.4-8.3,2.4-12,0c-3.6,2.4-8.4,2.4-12,0
				c-3.6,2.4-8.3,2.4-12,0c-3.6,2.4-8.4,2.4-12,0c-1.8,1.2-3.9,1.8-6,1.8c-0.4,0-0.7,0-1.1-0.1l2.5,7.6c0.3,0.9,1.1,1.5,2.1,1.5
				h52.9c0.9,0,1.8-0.6,2.1-1.5l2.5-7.6C61.8,1.8,61.4,1.8,61.1,1.8z"/>
		</g>
	</g>
</g>
</svg>
