<?xml version="1.0" encoding="utf-8"?>
<!-- Generator: Adobe Illustrator 24.1.0, SVG Export Plug-In . SVG Version: 6.00 Build 0)  -->
<svg version="1.1" id="Calque_1" xmlns="http://www.w3.org/2000/svg" xmlns:xlink="http://www.w3.org/1999/xlink" x="0px" y="0px"
	 viewBox="0 0 146 147" style="enable-background:new 0 0 146 147;" xml:space="preserve">
<style type="text/css">
	.st0{fill:#AF4B4F;}
	.st1{fill:#FFFFFF;}
</style>
<g id="Groupe_82" transform="translate(-0.429)">
	<ellipse id="Ellipse_45" class="st0" cx="73.4" cy="73.5" rx="73" ry="73.5"/>
	<g id="whisk" transform="translate(33.023 33.522)">
		<g id="Groupe_35" transform="translate(0 0)">
			<path id="Tracé_25" class="st1" d="M79,10L79,10c-1.6-4.1-4.8-7.3-8.9-8.9C62-2.2,52.7,1.8,49.3,9.9L34.5,43.8l-1.7,1.7
				c-1.5-0.7-3.4-0.4-4.6,0.8l-27,27c-1.6,1.5-1.7,4-0.2,5.7s4,1.7,5.7,0.2c0.1-0.1,0.1-0.1,0.2-0.2l27-27c1.2-1.2,1.5-3,0.8-4.6
				l1.7-1.7l33.8-14.8C78.4,27.6,82.3,18.2,79,10z M51.8,11c2.6-6.3,9.5-9.7,16.1-7.8l-0.8,0.2c-1.7,0.5-3.3,1.3-4.8,2.2
				c-3.4,2.2-6.3,5.1-8.5,8.5l-10.4,16L51.8,11z M56.1,15.6c2-3.1,4.6-5.7,7.7-7.7C65,7.1,66.4,6.5,67.9,6c0.9-0.3,1.8-0.4,2.7-0.5
				c0.3,0,0.5,0,0.8,0c0.4,0,0.7,0.1,1.1,0.3L43.7,34.7L56.1,15.6z M74.3,7.8c0.1,0.3,0.2,0.7,0.3,1.1c0.1,1.2,0,2.4-0.4,3.5
				c-0.5,1.5-1.1,2.9-1.9,4.2c-1,1.5-2.1,3-3.4,4.2c-1.3,1.3-2.7,2.4-4.3,3.4L45.5,36.6L74.3,7.8z M76.5,21.1c-1.4,3.4-4,6-7.4,7.4
				l-19,8.3l15.9-10.3c1.7-1.1,3.3-2.4,4.7-3.8c1.4-1.4,2.7-3,3.8-4.7c1-1.5,1.7-3.1,2.2-4.8c0.1-0.3,0.1-0.5,0.2-0.8
				C77.8,15.2,77.7,18.3,76.5,21.1L76.5,21.1z"/>
		</g>
	</g>
</g>
</svg>
