<?xml version="1.0" encoding="utf-8"?>
<!-- Generator: Adobe Illustrator 24.1.0, SVG Export Plug-In . SVG Version: 6.00 Build 0)  -->
<svg version="1.1" id="Calque_1" xmlns="http://www.w3.org/2000/svg" xmlns:xlink="http://www.w3.org/1999/xlink" x="0px" y="0px"
	 viewBox="0 0 146 147" style="enable-background:new 0 0 146 147;" xml:space="preserve">
<style type="text/css">
	.st0{fill:#AF4B4F;}
	.st1{fill:#FFFFFF;}
</style>
<g id="Groupe_79" transform="translate(0.393)">
	<ellipse id="Ellipse_44" class="st0" cx="72.6" cy="73.5" rx="73" ry="73.5"/>
	<g id="sleep" transform="translate(33.907 37.105)">
		<g id="Groupe_51" transform="translate(33.01 11.374)">
			<g id="Groupe_50">
				<path id="Tracé_33" class="st1" d="M12.7,11.2c-0.4-0.3-0.8-0.4-1.2-0.4H4.6L11,3.7L11.6,3L12,2.6c0.1-0.1,0.2-0.3,0.3-0.5
					c0.1-0.2,0.1-0.4,0.1-0.6c0-0.5-0.2-0.9-0.6-1.2C11.2,0.1,10.6,0,10.1,0h-8C1.6,0,1.2,0.1,0.9,0.4c-0.3,0.2-0.4,0.6-0.4,1
					c0,0.5,0.2,0.9,0.5,1c0.5,0.1,1.1,0.2,1.6,0.2h5.2C7.6,2.8,7.3,3.2,6.9,3.6L5.6,5.1L3.8,7L1.8,9.3c-0.7,0.8-1.2,1.4-1.4,1.6
					c-0.5,0.6-0.4,1.5,0.1,2.1c0.4,0.3,1,0.5,1.5,0.5h9.4c0.5,0,0.9-0.1,1.3-0.4c0.3-0.2,0.4-0.6,0.4-1C13.1,11.8,13,11.4,12.7,11.2
					z"/>
			</g>
		</g>
		<g id="Groupe_53" transform="translate(49.9 21.725)">
			<g id="Groupe_52">
				<path id="Tracé_34" class="st1" d="M10,8.9C9.7,8.7,9.4,8.6,9,8.6H3.6L8.7,3l0.5-0.5l0.3-0.4c0.1-0.1,0.2-0.2,0.2-0.4
					c0.1-0.1,0.1-0.3,0.1-0.5c0-0.4-0.1-0.7-0.5-0.9C8.9,0.1,8.4,0,8,0H1.6C1.3,0,1,0.1,0.7,0.3C0.5,0.5,0.3,0.8,0.4,1.1
					c0,0.4,0.1,0.7,0.4,0.8C1.2,2,1.6,2,2.1,2h4.1C6,2.3,5.7,2.5,5.5,2.9L4.4,4.1L3,5.7L1.4,7.5c-0.6,0.6-1,1.1-1.1,1.3
					c-0.4,0.5-0.3,1.2,0.1,1.6c0.3,0.2,0.7,0.3,1.1,0.3H9c0.4,0,0.7-0.1,1-0.3c0.2-0.2,0.3-0.5,0.3-0.8C10.4,9.4,10.2,9.1,10,8.9z"
					/>
			</g>
		</g>
		<g id="Groupe_55" transform="translate(64.164 10.359)">
			<g id="Groupe_54" transform="translate(0 0)">
				<path id="Tracé_35" class="st1" d="M12.6,11.3c-0.4-0.3-0.8-0.4-1.2-0.4H4.6L11,3.8l0.6-0.7l0.4-0.5c0.1-0.1,0.2-0.3,0.3-0.5
					c0.1-0.2,0.1-0.4,0.1-0.6c0-0.5-0.2-0.9-0.6-1.2C11.2,0.1,10.5,0,9.9,0H2C1.6,0,1.2,0.1,0.9,0.4c-0.3,0.2-0.4,0.6-0.4,1
					c0,0.5,0.2,0.9,0.5,1c0.5,0.1,1.1,0.2,1.6,0.2h5.2C7.5,2.8,7.3,3.2,6.9,3.6L5.6,5.1L3.8,7L1.8,9.3c-0.7,0.8-1.2,1.4-1.4,1.6
					C0.1,11.2,0,11.5,0,11.8c0,0.4,0.2,0.9,0.5,1.2c0.4,0.3,1,0.5,1.5,0.4h9.4c0.5,0,0.9-0.1,1.3-0.4c0.3-0.2,0.4-0.6,0.4-1
					C13,11.8,12.9,11.5,12.6,11.3z"/>
			</g>
		</g>
		<g id="Groupe_57">
			<g id="Groupe_56">
				<path id="Tracé_36" class="st1" d="M70.8,48.4c-0.4-0.2-0.9-0.2-1.3,0h0C52,55.6,32,47.3,24.7,29.9C21.1,21,21.3,11,25.3,2.3
					c0.4-0.8,0-1.8-0.8-2.1c-0.4-0.2-0.9-0.2-1.3,0C4.1,8-5,29.9,2.8,49.1s29.8,28.3,48.9,20.4c8.7-3.6,15.8-10.3,19.8-18.9
					C71.9,49.8,71.6,48.8,70.8,48.4z"/>
			</g>
		</g>
	</g>
</g>
</svg>
